<svg width="18" height="18" viewBox="0 0 18 18" fill="none" xmlns="http://www.w3.org/2000/svg">
<path d="M8.69336 7.11353V10.4806H13.3725C13.167 11.5635 12.5505 12.4804 11.6257 13.0969L14.4474 15.2863C16.0915 13.7688 17.0399 11.5398 17.0399 8.89201C17.0399 8.27551 16.9846 7.68265 16.8818 7.11362L8.69336 7.11353Z" fill="#4285F4"/>
<path d="M3.82267 10.3493L3.18627 10.8365L0.933594 12.5911C2.36421 15.4286 5.29638 17.3888 8.69507 17.3888C11.0425 17.3888 13.0106 16.6143 14.4491 15.2864L11.6274 13.097C10.8528 13.6187 9.86482 13.9348 8.69507 13.9348C6.43454 13.9348 4.51393 12.4094 3.82623 10.3543L3.82267 10.3493Z" fill="#34A853"/>
<path d="M0.932604 4.79761C0.339836 5.96735 0 7.28733 0 8.69422C0 10.1011 0.339836 11.4211 0.932604 12.5908C0.932604 12.5987 3.82552 10.3461 3.82552 10.3461C3.65163 9.82444 3.54885 9.2712 3.54885 8.69413C3.54885 8.11706 3.65163 7.56382 3.82552 7.04216L0.932604 4.79761Z" fill="#FBBC05"/>
<path d="M8.69525 3.46194C9.97572 3.46194 11.1139 3.90456 12.0228 4.7582L14.5126 2.26847C13.0029 0.861589 11.0428 0 8.69525 0C5.29656 0 2.36421 1.95228 0.933594 4.79773L3.82642 7.04246C4.51402 4.9874 6.43472 3.46194 8.69525 3.46194Z" fill="#EA4335"/>
</svg>
